<svg xmlns="http://www.w3.org/2000/svg" xmlns:xlink="http://www.w3.org/1999/xlink" width="1111" height="1549" viewBox="0 0 1111 1549"><defs><style>.a{clip-path:url(#b);}.b{fill:#fccdc2;}.c{fill:#f7f6f7;}.d{fill:none;stroke:#fff;stroke-width:3px;}.e{fill:#ff9395;}.f{fill:#2923ff;}.g,.h,.j{fill:#011721;}.g,.l,.m{stroke:#000;}.g,.h,.l{stroke-width:1.5px;}.h{stroke:#011721;}.i{fill:#e85c4b;}.k{fill:#16120f;}.l,.m,.o{fill:#ffdbd9;}.m{stroke-width:2px;}.n{fill:#fe0000;}.p{fill:#fff;}</style><clipPath id="b"><rect width="1111" height="1549"/></clipPath></defs><g id="a" class="a"><rect class="f" width="1111" height="1549"/><path class="b" d="M2791.186,1405.814c-55.986-80.067-121.039-149.76-187.717-214.92-32.47-31.713-65.841-61.954-99.471-91.666-37.344-32.978-71.663-69.959-107.045-106.225C2263.031,855.7,2119,720.5,1950.033,664.834c-159.073-52.4-326.558-27.649-478.2,48.027-134.434,67.1-267.291,178.961-357.757,323.187-88.2,140.612-101.337,315.448-54.021,482.259,50.95,179.614,159.974,329.905,266.891,459.45,62.819,76.125,399.073,411.258,642.644,461.49,130.863,27,271.328,6.229,393.767-59.85,106.321-57.381,202.785-148.147,285.868-249.022C2793.6,1955.111,2954.921,1640.052,2791.186,1405.814Z" transform="matrix(0.588, -0.809, 0.809, 0.588, -1256.387, 1570.327)"/><path class="c" d="M930.488,70.84q-3.655-.962-7.319-1.874a458.524,458.524,0,0,0-144.4-11.93c-10.924.794-22.267,2.14-33.714,4-12.581,2.037-25.152,5.035-36.949,7.925-27.47,6.732-53.929,14.391-78.633,22.77a677.74,677.74,0,0,0-79.732,32.6c-28.95,14.13-53.771,28.994-75.9,45.446-35.2,26.173-81.163,70.628-100.239,133.755a232.79,232.79,0,0,0-9.366,88.378,177.146,177.146,0,0,0,7.422,36.431c3.048,9.8,7.585,19.722,14.287,31.218a130.472,130.472,0,0,0,17.764,23.485,179.505,179.505,0,0,0,24.96,22.356c16.393,11.989,35.622,22.237,58.792,31.327,15.964,6.263,33.729,11.905,55.912,17.769q6.392,1.687,12.793,3.289c21,5.262,42.552,9.824,63.389,14.233l5.893,1.248c20.586,4.375,43.913,9.326,66.352,15.254q3.669.969,7.329,1.983c22.745,6.525,40.613,13.2,56.232,21.014.646,1.672,1.238,3.437,1.746,5.233,2.816,13.784,2.574,28.047,2.343,41.836-.2,11.94-.409,24.289,1.366,36.3a18.864,18.864,0,0,0,33.5,9.642c6.949-8.448,13.508-17.409,19.855-26.079l2.949-4.019c6.278-8.547,13.188-17.567,21.142-25.64a107.243,107.243,0,0,1,17.71-13.1c9.3-4.646,19.387-7.684,29.137-10.628,4.128-1.248,8.4-2.535,12.561-3.931A479.476,479.476,0,0,0,1027.96,553.1a374.083,374.083,0,0,0,71.072-68.73,315.034,315.034,0,0,0,27.559-42.019,251.884,251.884,0,0,0,18.765-43.015c18.3-55.231,17.449-113.456-2.4-163.948-16.092-40.934-45.9-77.952-86.183-107.054-34.942-25.241-77.429-44.583-126.288-57.495Z" transform="translate(466.777 1165.324)"/><path class="d" d="M763.255,323.282c-17.99-.511-36.294-.233-54,.036l-3.715.055c-17.414.262-35.122.142-52.248.026l-9.883-.061-19.957-.129c-20.223-.129-41.132-.265-61.7-.314-45.018-.1-104.256.178-163.248,3.317-13.233.7-26.905,1.6-40.643,2.66q-6.709.519-13.417,1.094c-5.569.466-11.333.948-17.006,1.362q-4.864.359-9.734.705c-14.31,1.023-29.109,2.084-43.623,3.631a391.382,391.382,0,0,0-55.639,9.589,190.059,190.059,0,0,0-50.351,20.4,133.871,133.871,0,0,0-21.747,16.394,119.01,119.01,0,0,0-17.951,21.21A102.733,102.733,0,0,0,121.5,415a116.878,116.878,0,0,0-5.974,14.614,103.748,103.748,0,0,0-5.288,27.724c-1.851,28.443,7.789,57.934,26.452,80.907A123.144,123.144,0,0,0,152.379,554.4a119.683,119.683,0,0,0,18.708,12.948,110.847,110.847,0,0,0,22.2,9.3c3.9,1.2,7.925,2.21,11.818,3.188,4.534,1.139,9.223,2.317,13.747,3.8a61.634,61.634,0,0,1,9.87,4.628c3.524,18.035,8.217,36.95,18.576,53.018a9.294,9.294,0,0,0,7.476,4.158c.281.006.563,0,.845-.016a9.3,9.3,0,0,0,4.472-1.5c1.78-1.172,3.783-3.5,3.974-5.851A83.669,83.669,0,0,1,268.23,618.3a99.9,99.9,0,0,1,10.194-20.268,74.57,74.57,0,0,1,10.514-11.951,51.987,51.987,0,0,1,8.443-5.667,68.1,68.1,0,0,1,13.485-4.278c9.553-1.731,19.9-2.369,32.546-2.006,3.913.11,8.168.32,13.016.644,11.291.848,22.711,2.214,33.756,3.531,6.566.786,13.356,1.6,20.048,2.291,9.838,1.019,19.88,1.7,29.591,2.359q3.383.233,6.767.466c13.469.935,27.145,1.754,40.64,2.424,12.174.608,24.336,1.087,36.145,1.424,43.834,1.249,86.315.615,126.262-1.883,24.074-1.508,55.723-3.806,87.011-8.226,15.854-2.236,31.31-5.074,45.934-8.437a324.162,324.162,0,0,0,42.753-12.76c30.7-11.647,54.361-27.274,70.328-46.449a114.605,114.605,0,0,0,11.945-17.462,109.882,109.882,0,0,0,8.456-20c4.369-13.424,6.074-28.886,5.074-45.96a122.281,122.281,0,0,0-4.01-24.915,91.805,91.805,0,0,0-8.737-20.789,86.11,86.11,0,0,0-12.906-16.948,95.02,95.02,0,0,0-16.459-13.369c-10.43-7.01-22.938-12.437-39.365-17.081-12.822-3.624-26.854-6.09-44.154-7.763-10.009-.971-20.559-1.605-32.251-1.938Z" transform="translate(621.085 -257.376)"/><g transform="translate(220.173 399.11)"><g transform="translate(106.828 79.348)"><g transform="translate(0 23.253)"><g transform="translate(175.784)"><path class="e" d="M180,0h1.813a180,180,0,0,1,180,180V576.834a0,0,0,0,1,0,0H0a0,0,0,0,1,0,0V180A180,180,0,0,1,180,0Z"/></g><g transform="translate(192.54 177.116)"><rect class="f" width="328.301" height="399.717"/></g><g transform="translate(85.986 738.604)"><rect class="g" width="369.764" height="0.688"/></g><g transform="translate(274.36 684.357)"><rect class="g" width="369.763" height="0.688"/></g><g transform="translate(138.689 576.924)"><g transform="translate(0 0)"><rect class="h" width="452.059" height="0.688"/></g></g><g transform="translate(36.633 518.04)"><g transform="translate(0 0)"><rect class="h" width="126.77" height="0.688"/></g></g><g transform="translate(537.598 207.786)"><rect class="g" width="126.769" height="0.688"/></g><g transform="translate(537.598 259.423)"><rect class="g" width="80.098" height="0.688"/></g><g transform="translate(0 630.111)"><rect class="h" width="713.382" height="0.688"/></g><g transform="translate(77.665 587.682)"><g transform="translate(0 0)"><rect class="h" width="0.688" height="42.772"/></g></g><g transform="translate(364.374 696.678)"><g transform="translate(0 0)"><rect class="g" width="0.688" height="42.27"/></g></g><g transform="translate(537.254 630.455)"><rect class="g" width="0.688" height="47.466"/></g><g transform="translate(590.404 577.268)"><rect class="h" width="0.688" height="37.538"/></g><g transform="translate(586.057 208.13)"><rect class="g" width="0.688" height="29.531"/></g><g transform="translate(77.665 482.125)"><rect class="h" width="0.688" height="36.258"/></g><g transform="translate(368.907 319.365)"><g transform="translate(3.699)"><path class="i" d="M307.406,231.9l-36.672-15.031-14.346,67.806,16.257,7.708Z" transform="translate(-256.388 -216.871)"/></g><g transform="translate(0 3.086)"><path class="e" d="M309.62,230.054l-42-11.945L254.9,281.592l41.039-22.811Z" transform="translate(-254.903 -218.109)"/></g><g transform="translate(9.261 15.031)"><path class="j" d="M274.541,223.853l29.536-.949-17.916,60.041-27.54,6.688Z" transform="translate(-258.621 -222.904)"/></g></g><g transform="translate(188.067 277.91)"><g transform="translate(84.408 122.559)"><path class="k" d="M291.231,400.465l47.061-63.183,75.129,71.412h24.739S385.036,296.028,336.509,249.425c0,0-70.966,49.72-120.312,119.856l56.277,43.457Z" transform="translate(-216.197 -249.425)"/></g><path class="j" d="M238.423,230.152a36.261,36.261,0,0,0,4.529-8.274c2.108-6.106-.027-14.482-6.752-16.734a8.317,8.317,0,0,0-8.917,2.31,10.355,10.355,0,0,0-20.185,2.195,10.949,10.949,0,0,0-16.891,5.9c-1.031,3.65-.082,7.609,1.642,10.989-4.659.892-8.187,5.147-9.178,9.771s.2,9.485,2.265,13.74a35.376,35.376,0,0,0,22.482,18.463,1.876,1.876,0,0,0,.867.085,1.942,1.942,0,0,0,.877-.578c11.293-10.962,20.03-24.213,28.837-37.246Z" transform="translate(-182.316 -200.231)"/><g transform="translate(281.174 281.828)"><path class="l" d="M295.636,313.354h0c-2.013,8.488,2.848,17.1,9.654,17.1h40.27c1.325,0,1.694-2.382.468-3.049l-25.654-14.046Z" transform="translate(-295.177 -313.354)"/></g><g transform="translate(205.047 493.745)"><path class="m" d="M264.62,398.415v33.342a10.319,10.319,0,0,0,4.45,8.483l21.49,14.893a4.5,4.5,0,0,0,6.926-4.8l-12.093-46.969Z" transform="translate(-264.62 -398.415)"/></g><g transform="translate(94.745 155.726)"><path class="k" d="M320.991,262.738c-45.068,24.34-100.212,84.746-100.212,84.746s-.187,4.522-.434,9.926l45.94,35.474,18.757-12.272,47.061-63.183,75.129,71.412h10.638C389.708,365.07,320.991,262.738,320.991,262.738Z" transform="translate(-220.346 -262.738)"/></g><g transform="translate(3.878 240.472)"><path class="k" d="M355.215,385.8s17.5,81.843,29.826,164.222l20.773,4.953c11.674-54.767,12.242-136.431-8.625-210.608,0,0-69.362-28.212-122.016-47.617,0,0-34.523,46.573-91.3,33.352C183.873,330.106,183.873,399.751,355.215,385.8Z" transform="translate(-183.873 -296.754)"/></g><g transform="translate(186.21 122.559)"><path class="k" d="M275.57,249.425s-7,4.9-18.117,13.795l-.394,1.831,17.477-10.192S320.115,306.2,373.9,408.694h3.321S324.1,296.028,275.57,249.425Z" transform="translate(-257.059 -249.425)"/></g><g transform="translate(3.878 23.917)"><path class="n" d="M275.173,426.386a741.275,741.275,0,0,0-8.887-83.164l45.273,28.309c49.54-32.507,84.023-82.207,98.161-105.015a3.029,3.029,0,0,0-4.347-4.043l-91.726,65.079s-75.087-66.452-89.135-77.533a5.786,5.786,0,0,1-2.212-4.564,4.4,4.4,0,0,1,4.41-4.395h7.756l9.734-12.128-12.165-19.1s-1.218,13.643-18.859,16.677l-3.65-7.885s-10.342,5.459-2.432,15.765c0,0,.072.12.194.341a19.138,19.138,0,0,1-1.956,21.4c-7.016,8.66-19.744,28.511-21.458,60.106V459.738C240.651,472.96,275.173,426.386,275.173,426.386Z" transform="translate(-183.873 -209.831)"/><g transform="translate(201.794 52.058)"><path class="o" d="M273.987,257.639c6.263-8.707,11.291-16.4,14.938-22.285a3.029,3.029,0,0,0-4.347-4.043l-19.707,13.981Z" transform="translate(-264.871 -230.727)"/></g><g transform="translate(20.24)"><path class="l" d="M210.184,245.455a4.4,4.4,0,0,1,4.41-4.395h7.756l9.734-12.128-12.165-19.1s-1.218,13.643-18.859,16.677l-3.65-7.885s-10.342,5.459-2.432,15.765c0,0,.07.12.194.341a19.048,19.048,0,0,1-.222,18.854,22.77,22.77,0,0,1,25.539,3.144c-3.5-2.967-6.3-5.294-8.092-6.709A5.789,5.789,0,0,1,210.184,245.455Z" transform="translate(-191.997 -209.831)"/></g></g></g><path class="e" d="M81.22,195.734h0c0-90.29,73.861-164.174,164.151-164.174h0c90.29,0,164.15,73.884,164.15,164.174h0" transform="translate(111.32 -18.618)"/></g><g transform="translate(154.298)"><path class="p" d="M169.084,259.657l-.042,0a.32.32,0,0,1-.277-.361c5.942-43.967,20.28-80.779,42.612-109.415A174.963,174.963,0,0,1,279.744,97.1c46.8-20.606,90.987-17.624,91.435-17.586a.321.321,0,0,1,.3.344.3.3,0,0,1-.346.3c-.436-.032-44.5-3-91.151,17.544-43.038,18.957-97.16,62.4-110.576,161.676A.322.322,0,0,1,169.084,259.657Z" transform="translate(-168.762 -79.348)"/></g><g transform="translate(400.576 211.534)"><path class="j" d="M374.155,164.9H267.936a.321.321,0,1,1,0-.643H374.155a.321.321,0,1,1,0,.643Z" transform="translate(-267.615 -164.255)"/></g><g transform="translate(377.846 847.58)"><path class="p" d="M297.934,454.019a.322.322,0,0,1-.212-.077L258.6,420.122a.321.321,0,0,1,.421-.486l39.122,33.818a.325.325,0,0,1,.032.453A.318.318,0,0,1,297.934,454.019Z" transform="translate(-258.491 -419.557)"/></g></g></g></g></svg>