<svg xmlns="http://www.w3.org/2000/svg" width="46" height="47" viewBox="0 0 46 47">
  <g id="Group_189" data-name="Group 189" transform="translate(-642 -5526)">
    <ellipse id="Ellipse_27" data-name="Ellipse 27" cx="23" cy="23.5" rx="23" ry="23.5" transform="translate(642 5526)"/>
    <path id="Path_61" data-name="Path 61" d="M106.15,10.7c-2.073,0-3.935,1.283-5.2,3.519-.24.428-.511.921-.841,1.447-.841,1.348-1.442,2.335-1.982,3.223-1.051,1.677-2.253,2.532-3.6,2.532A4.172,4.172,0,0,1,90.5,17.113a4.192,4.192,0,0,1,3.935-4.407h.12a4.616,4.616,0,0,1,3.694,2.039l1.021-1.71A5.906,5.906,0,0,0,88.7,17.015a6.105,6.105,0,0,0,5.737,6.413h.15c2.072,0,3.935-1.316,5.2-3.519.9-1.381,2.343-3.914,2.823-4.67,1.021-1.677,2.253-2.532,3.6-2.532a4.172,4.172,0,0,1,4.025,4.308,4.192,4.192,0,0,1-3.935,4.407h-.12a4.616,4.616,0,0,1-3.694-2.039l-1.021,1.71a5.906,5.906,0,0,0,10.573-3.98A6.105,6.105,0,0,0,106.3,10.7Z" transform="translate(564.528 5532.286)" fill="#fff"/>
  </g>
</svg>
