<?xml version="1.0" encoding="UTF-8"?>
<svg width="322px" height="366px" viewBox="0 0 322 366" version="1.1" xmlns="http://www.w3.org/2000/svg" xmlns:xlink="http://www.w3.org/1999/xlink">
    <!-- Generator: Sketch 51.3 (57544) - http://www.bohemiancoding.com/sketch -->
    <title>shopify-logo</title>
    <desc>Created with Sketch.</desc>
    <defs></defs>
    <g id="Page-1" stroke="none" stroke-width="1" fill="none" fill-rule="evenodd">
        <g id="shopify-logo" fill-rule="nonzero">
            <path d="M281.6,71.6 C281.3,69.8 279.7,68.8 278.4,68.6 C277.1,68.5 249,66.4 249,66.4 C249,66.4 229.5,47.1 227.4,44.9 C225.3,42.8 221.1,43.4 219.5,43.9 C219.3,44 215.2,45.2 208.6,47.3 C202.1,28.6 190.6,11.4 170.4,11.4 C169.8,11.4 169.3,11.4 168.7,11.5 C163,3.9 155.8,0.6 149.7,0.6 C102.6,0.6 80.1,59.4 73.1,89.4 C54.8,95.1 41.8,99.1 40.2,99.6 C30,102.8 29.7,103.1 28.3,112.7 C27.3,120 0.6,326.6 0.6,326.6 L208.8,365.6 L321.6,341.2 C321.5,341.1 281.9,73.4 281.6,71.6 Z M197.1,50.8 C191.9,52.4 185.9,54.3 179.5,56.3 C179.5,55.1 179.5,53.8 179.5,52.5 C179.5,40.9 177.9,31.5 175.3,24.1 C185.7,25.4 192.6,37.2 197.1,50.8 Z M162.4,26.4 C165.3,33.7 167.2,44.1 167.2,58.1 C167.2,58.8 167.2,59.5 167.2,60.1 C155.7,63.6 143.3,67.5 130.8,71.4 C137.8,44.3 150.9,31.3 162.4,26.4 Z M148.4,13.1 C150.4,13.1 152.5,13.8 154.4,15.1 C139.3,22.2 123.1,40.1 116.3,75.8 C106.3,78.9 96.6,81.9 87.5,84.7 C95.6,57.5 114.6,13.1 148.4,13.1 Z" id="XMLID_7_" fill="#95BF46"></path>
            <path d="M278.4,68.6 C277.1,68.5 249,66.4 249,66.4 C249,66.4 229.5,47.1 227.4,44.9 C226.6,44.1 225.5,43.7 224.4,43.5 L208.7,365.4 L321.5,341 C321.5,341 281.9,73.3 281.7,71.5 C281.4,69.7 279.8,68.7 278.4,68.6" id="XMLID_8_" fill="#5E8E3E"></path>
            <path d="M170.4,130.9 L156.5,172.3 C156.5,172.3 144.3,165.8 129.4,165.8 C107.5,165.8 106.4,179.5 106.4,183 C106.4,201.9 155.7,209.1 155.7,253.4 C155.7,288.2 133.6,310.6 103.8,310.6 C68.1,310.6 49.8,288.4 49.8,288.4 L59.4,256.8 C59.4,256.8 78.2,272.9 94,272.9 C104.4,272.9 108.6,264.7 108.6,258.8 C108.6,234.2 68.2,233.1 68.2,192.6 C68.2,158.5 92.7,125.5 142.1,125.5 C161,125.5 170.4,130.9 170.4,130.9" id="XMLID_9_" fill="#FFFFFF"></path>
        </g>
    </g>
</svg>